<svg width="277" height="82" viewBox="0 0 277 82" fill="none" xmlns="http://www.w3.org/2000/svg">
<rect width="277" height="82" fill="#E0E0E0"/>
<path d="M277 81.6208H0V0.645813H277V81.6208ZM7.13702 7.7149V74.5483H269.863V7.7149H7.13702Z" fill="#CC3535"/>
<path d="M50.209 44.9365H35.9023V60H29.7256V24.4531H52.3086V29.4336H35.9023V40.0049H50.209V44.9365ZM72.4258 51.7236H58.6562L55.7754 60H49.3545L62.7822 24.4531H68.3242L81.7764 60H75.3311L72.4258 51.7236ZM60.3896 46.7432H70.6924L65.541 31.9971L60.3896 46.7432ZM85.8291 60V24.4531H98.0117C102.032 24.4531 105.092 25.2588 107.191 26.8701C109.291 28.4814 110.341 30.8822 110.341 34.0723C110.341 35.6999 109.901 37.1647 109.022 38.4668C108.144 39.7689 106.858 40.778 105.165 41.4941C107.086 42.015 108.567 42.9997 109.608 44.4482C110.666 45.8805 111.195 47.6058 111.195 49.624C111.195 52.9606 110.121 55.5241 107.973 57.3145C105.84 59.1048 102.781 60 98.793 60H85.8291ZM92.0059 43.96V55.0684H98.8662C100.803 55.0684 102.317 54.5882 103.407 53.6279C104.498 52.6676 105.043 51.333 105.043 49.624C105.043 45.9294 103.155 44.0413 99.3789 43.96H92.0059ZM92.0059 39.4189H98.0605C99.9811 39.4189 101.479 38.9876 102.553 38.125C103.643 37.2461 104.188 36.0091 104.188 34.4141C104.188 32.6562 103.684 31.3867 102.675 30.6055C101.682 29.8242 100.128 29.4336 98.0117 29.4336H92.0059V39.4189ZM117.372 60V24.4531H129.555C133.575 24.4531 136.635 25.2588 138.734 26.8701C140.834 28.4814 141.884 30.8822 141.884 34.0723C141.884 35.6999 141.444 37.1647 140.565 38.4668C139.687 39.7689 138.401 40.778 136.708 41.4941C138.629 42.015 140.11 42.9997 141.151 44.4482C142.209 45.8805 142.738 47.6058 142.738 49.624C142.738 52.9606 141.664 55.5241 139.516 57.3145C137.383 59.1048 134.324 60 130.336 60H117.372ZM123.549 43.96V55.0684H130.409C132.346 55.0684 133.86 54.5882 134.95 53.6279C136.041 52.6676 136.586 51.333 136.586 49.624C136.586 45.9294 134.698 44.0413 130.922 43.96H123.549ZM123.549 39.4189H129.604C131.524 39.4189 133.021 38.9876 134.096 38.125C135.186 37.2461 135.731 36.0091 135.731 34.4141C135.731 32.6562 135.227 31.3867 134.218 30.6055C133.225 29.8242 131.671 29.4336 129.555 29.4336H123.549V39.4189ZM177.284 43.1543C177.284 46.6374 176.682 49.6973 175.478 52.334C174.273 54.9544 172.548 56.9727 170.302 58.3887C168.072 59.7884 165.5 60.4883 162.587 60.4883C159.706 60.4883 157.134 59.7884 154.872 58.3887C152.626 56.9727 150.884 54.9626 149.647 52.3584C148.427 49.7542 147.808 46.7513 147.792 43.3496V41.3477C147.792 37.8809 148.402 34.821 149.623 32.168C150.86 29.515 152.593 27.4886 154.823 26.0889C157.069 24.6729 159.641 23.9648 162.538 23.9648C165.435 23.9648 167.999 24.6647 170.229 26.0645C172.475 27.4479 174.208 29.4499 175.429 32.0703C176.649 34.6745 177.268 37.71 177.284 41.1768V43.1543ZM171.107 41.2988C171.107 37.36 170.359 34.3408 168.861 32.2412C167.38 30.1416 165.272 29.0918 162.538 29.0918C159.869 29.0918 157.777 30.1416 156.264 32.2412C154.766 34.3245 154.001 37.2786 153.969 41.1035V43.1543C153.969 47.0605 154.726 50.0798 156.239 52.2119C157.769 54.3441 159.885 55.4102 162.587 55.4102C165.321 55.4102 167.421 54.3685 168.886 52.2852C170.367 50.2018 171.107 47.1582 171.107 43.1543V41.2988ZM211.806 43.1543C211.806 46.6374 211.203 49.6973 209.999 52.334C208.795 54.9544 207.069 56.9727 204.823 58.3887C202.593 59.7884 200.022 60.4883 197.108 60.4883C194.228 60.4883 191.656 59.7884 189.394 58.3887C187.147 56.9727 185.406 54.9626 184.169 52.3584C182.948 49.7542 182.33 46.7513 182.313 43.3496V41.3477C182.313 37.8809 182.924 34.821 184.145 32.168C185.382 29.515 187.115 27.4886 189.345 26.0889C191.591 24.6729 194.162 23.9648 197.06 23.9648C199.957 23.9648 202.52 24.6647 204.75 26.0645C206.996 27.4479 208.729 29.4499 209.95 32.0703C211.171 34.6745 211.789 37.71 211.806 41.1768V43.1543ZM205.629 41.2988C205.629 37.36 204.88 34.3408 203.383 32.2412C201.902 30.1416 199.794 29.0918 197.06 29.0918C194.39 29.0918 192.299 30.1416 190.785 32.2412C189.288 34.3245 188.523 37.2786 188.49 41.1035V43.1543C188.49 47.0605 189.247 50.0798 190.761 52.2119C192.291 54.3441 194.407 55.4102 197.108 55.4102C199.843 55.4102 201.942 54.3685 203.407 52.2852C204.888 50.2018 205.629 47.1582 205.629 43.1543V41.2988ZM228.163 44.6436L224.135 48.916V60H217.958V24.4531H224.135V41.1279L227.553 36.9043L237.953 24.4531H245.424L232.216 40.2002L246.181 60H238.856L228.163 44.6436Z" fill="black"/>
</svg>
